<?xml version="1.0" encoding="UTF-8"?>
<svg width="718px" height="215px" viewBox="0 0 718 215" version="1.1" xmlns="http://www.w3.org/2000/svg" xmlns:xlink="http://www.w3.org/1999/xlink">
    <!-- Generator: Sketch 51.2 (57519) - http://www.bohemiancoding.com/sketch -->
    <title>white-blue</title>
    <desc>Created with Sketch.</desc>
    <defs></defs>
    <g id="Page-1" stroke="none" stroke-width="1" fill="none" fill-rule="evenodd">
        <g id="white-blue" transform="translate(-20.000000, -52.000000)">
            <text id="shin" font-family="LucidaGrande, Lucida Grande" font-size="270" font-weight="normal" fill="#FFFFFF">
                <tspan x="0" y="261">shin</tspan>
            </text>
            <circle id="Oval-2-Copy" fill="#4A90E2" cx="569" cy="77" r="25"></circle>
            <path d="M648,267 C598.294373,267 558,226.705627 558,177 C558,127.294373 598.294373,87 648,87 C697.705627,87 738,127.294373 738,177 C738,226.705627 697.705627,267 648,267 Z M662,222 C692.375661,222 717,197.375661 717,167 C717,136.624339 692.375661,112 662,112 C631.624339,112 607,136.624339 607,167 C607,197.375661 631.624339,222 662,222 Z" id="Combined-Shape" fill="#4A90E2"></path>
            <circle id="Oval-2-Copy" fill="#4A90E2" cx="342" cy="77" r="25"></circle>
        </g>
    </g>
</svg>