<?xml version="1.0" encoding="UTF-8"?>
<svg width="252px" height="298px" viewBox="0 0 252 298" version="1.1" xmlns="http://www.w3.org/2000/svg" xmlns:xlink="http://www.w3.org/1999/xlink">
    <!-- Generator: Sketch 51.2 (57519) - http://www.bohemiancoding.com/sketch -->
    <title>Group 4</title>
    <desc>Created with Sketch.</desc>
    <defs></defs>
    <g id="Page-1" stroke="none" stroke-width="1" fill="none" fill-rule="evenodd">
        <g id="Group-4">
            <path d="M141.623552,4.3893652 L237.623552,62.9533574 C246.552541,68.4004117 252,78.1046787 252,88.5639922 L252,208.613664 C252,219.072977 246.552541,228.777244 237.623552,234.224299 L141.623552,292.788291 C132.029965,298.640778 119.970035,298.640778 110.376448,292.788291 L14.3764477,234.224299 C5.44745912,228.777244 1.45661261e-13,219.072977 1.3500312e-13,208.613664 L8.52651283e-14,88.5639922 C7.10542736e-14,78.1046787 5.44745912,68.4004117 14.3764477,62.9533574 L110.376448,4.3893652 C119.970035,-1.46312173 132.029965,-1.46312173 141.623552,4.3893652 Z" id="Polygon" fill="#4A90E2"></path>
            <circle id="Oval-2-Copy" fill="#FFFFFF" cx="63" cy="84" r="25"></circle>
            <circle id="Oval-2" fill="#FFFFFF" cx="139" cy="171" r="78"></circle>
            <circle id="Oval-2-Copy-2" fill="#4A90E2" cx="155" cy="161" r="55"></circle>
        </g>
    </g>
</svg>